<svg xmlns:inkscape="http://www.inkscape.org/namespaces/inkscape" xmlns:sodipodi="http://sodipodi.sourceforge.net/DTD/sodipodi-0.dtd" xmlns="http://www.w3.org/2000/svg" xmlns:svg="http://www.w3.org/2000/svg" viewBox="0 0 8.46667 10.5833375" version="1.1" x="0px" y="0px"><g transform="translate(-110.28785,-85.11836)"><path style="color:#000000;" d="M 114.5217 86.29865 C 114.30248 86.29865 114.0824 86.407951 113.97445 86.626795 L 113.36311 87.865479 C 113.33601 87.920399 113.28519 87.957952 113.22462 87.966765 L 111.85726 88.166236 C 111.37421 88.236466 111.16985 88.864119 111.5193 89.204932 L 112.50787 90.169731 C 112.55177 90.212531 112.57295 90.273648 112.56265 90.334062 L 112.32804 91.697287 C 112.24554 92.178342 112.78078 92.565293 113.21274 92.338074 L 114.4354 91.69522 C 114.4896 91.66673 114.55332 91.66673 114.60748 91.69522 L 115.83015 92.338074 C 116.2621 92.565294 116.79731 92.178343 116.71485 91.697287 L 116.48024 90.334062 C 116.46984 90.273642 116.48925 90.212528 116.53295 90.169731 L 117.52358 89.204932 C 117.87303 88.864119 117.66867 88.236469 117.18562 88.166236 L 115.81826 87.966765 C 115.75766 87.957965 115.70686 87.920402 115.67977 87.865479 L 115.06844 86.626795 C 114.96049 86.407951 114.74093 86.29865 114.5217 86.29865 z " fill="#000000" stroke-linecap="round" stroke-linejoin="round"/></g><text x="0" y="23.46667" fill="#000000" font-size="5px" font-weight="bold" font-family="'Helvetica Neue', Helvetica, Arial-Unicode, Arial, Sans-serif">Created by Meko</text><text x="0" y="28.46667" fill="#000000" font-size="5px" font-weight="bold" font-family="'Helvetica Neue', Helvetica, Arial-Unicode, Arial, Sans-serif">from the Noun Project</text></svg>