<svg x="0px" viewBox="0 0 96.5 56.4" xmlns:xlink="http://www.w3.org/1999/xlink" y="0px" xmlns="http://www.w3.org/2000/svg" version="1.1">
                        <path d="M70.7,56.4c-1.8,0-3.4-1.2-3.9-3.1c-1.3-5.4-6.9-6-9.2-6H16.1C7.2,47.3,0,40.1,0,31.3V16.1C0,7.2,7.2,0,16.1,0h64.3
                                c8.9,0,16.1,7.2,16.1,16.1v15.2c0,5.1-2.3,9.7-6.3,12.8c-1.8,1.3-4.3,1-5.6-0.7s-1-4.3,0.7-5.6c2-1.5,3.2-3.9,3.2-6.4V16.1
                                c0-4.5-3.6-8.1-8.1-8.1H16.1C11.6,8,8,11.6,8,16.1v15.2c0,4.5,3.6,8.1,8.1,8.1h41.6c6.8,0,14.8,3.2,17,12.1c0.5,2.1-0.8,4.3-2.9,4.8
                                C71.4,56.4,71,56.4,70.7,56.4z" fill="#d10202"></path>
                    </svg>